<?xml version="1.0" standalone="no"?>
<!DOCTYPE svg PUBLIC "-//W3C//DTD SVG 20010904//EN"
 "http://www.w3.org/TR/2001/REC-SVG-20010904/DTD/svg10.dtd">
<svg version="1.0" xmlns="http://www.w3.org/2000/svg"
 width="254.000000pt" height="242.000000pt" viewBox="0 0 254.000000 242.000000"
 preserveAspectRatio="xMidYMid meet">

<g transform="translate(0.000000,242.000000) scale(0.100000,-0.100000)"
fill="#000000" stroke="none">
<path d="M1676 1701 l-299 -299 121 -123 122 -124 300 300 300 301 0 46 c0 54
-37 111 -109 165 -34 26 -52 33 -89 33 l-46 0 -300 -299z"/>
<path d="M1201 1168 c-7 -35 -15 -73 -18 -85 -5 -23 -4 -23 103 -23 l109 0
-85 85 c-47 47 -87 85 -91 85 -4 0 -12 -28 -18 -62z"/>
<path d="M1026 904 c-27 -27 -20 -62 18 -85 41 -24 50 -43 30 -64 -12 -11 -20
-12 -36 -4 -23 12 -37 4 -21 -12 18 -18 65 -13 80 7 22 30 15 51 -28 86 -30
25 -38 38 -33 52 5 14 14 17 35 12 31 -6 40 8 13 18 -25 10 -42 7 -58 -10z"/>
<path d="M1255 896 c-72 -72 -16 -192 77 -168 30 8 33 12 33 47 0 22 -5 40
-12 43 -9 2 -13 -8 -13 -31 0 -44 -24 -55 -60 -29 -63 48 -19 169 50 132 28
-15 41 -3 16 16 -29 21 -64 17 -91 -10z"/>
<path d="M704 894 c3 -9 6 -50 6 -91 l0 -76 47 6 c60 6 83 33 83 93 0 62 -24
84 -91 84 -43 0 -50 -3 -45 -16z m105 -35 c25 -46 -6 -109 -55 -109 -23 0 -24
3 -24 71 l0 70 32 -3 c22 -2 37 -11 47 -29z"/>
<path d="M888 820 l3 -90 40 0 c21 0 39 5 39 10 0 6 -13 10 -30 10 -27 0 -30
3 -30 30 0 25 4 30 25 30 31 0 33 17 3 22 -17 2 -24 11 -26 31 -3 24 0 27 27
27 17 0 31 5 31 10 0 6 -19 10 -42 10 l-43 0 3 -90z"/>
<path d="M1152 825 c2 -48 7 -85 13 -85 6 0 11 37 13 85 2 72 0 85 -13 85 -13
0 -15 -13 -13 -85z"/>
<path d="M1414 894 c3 -9 6 -49 6 -90 0 -43 4 -74 10 -74 6 0 10 28 10 63 l1
62 59 -65 60 -65 0 93 c0 102 -17 128 -22 32 l-3 -60 -50 59 c-47 57 -85 80
-71 45z"/>
<path d="M1622 823 l3 -88 43 -3 c25 -2 42 1 42 7 0 6 -13 11 -30 11 -27 0
-30 3 -30 30 0 23 5 30 19 30 11 0 23 5 26 10 4 6 -5 10 -19 10 -22 0 -26 4
-26 30 0 27 3 30 30 30 17 0 30 5 30 10 0 6 -20 10 -45 10 l-46 0 3 -87z"/>
<path d="M1760 820 c0 -49 4 -90 9 -90 6 0 11 14 13 32 4 44 21 45 49 3 13
-19 30 -35 37 -35 17 0 15 7 -13 44 -22 29 -23 35 -10 46 18 15 20 61 3 78 -7
7 -29 12 -50 12 l-38 0 0 -90z m75 49 c8 -26 -16 -54 -39 -46 -10 4 -16 18
-16 37 0 25 4 30 24 30 16 0 27 -7 31 -21z"/>
<path d="M848 579 c13 -5 71 -18 130 -29 59 -12 143 -28 187 -36 89 -17 111
-31 100 -63 -7 -22 -77 -62 -130 -75 -62 -15 -231 -23 -324 -14 -117 10 -184
29 -272 75 -62 32 -69 34 -95 22 -37 -18 -59 -58 -50 -92 8 -33 104 -107 191
-148 105 -50 205 -70 350 -70 88 -1 154 5 203 16 206 48 349 153 360 264 4 43
1 52 -29 86 -62 70 -86 75 -382 74 -172 0 -254 -3 -239 -10z"/>
</g>
</svg>
