<?xml version="1.0" standalone="no"?>
<!DOCTYPE svg PUBLIC "-//W3C//DTD SVG 20010904//EN"
 "http://www.w3.org/TR/2001/REC-SVG-20010904/DTD/svg10.dtd">
<svg version="1.0" xmlns="http://www.w3.org/2000/svg"
 width="375.000000pt" height="298.000000pt" viewBox="0 0 375.000000 298.000000"
 preserveAspectRatio="xMidYMid meet">

<g transform="translate(0.000000,298.000000) scale(0.100000,-0.100000)"
fill="#000000" stroke="none">
<path d="M1520 2540 c-115 -19 -205 -64 -267 -134 -80 -91 -118 -206 -131
-404 l-7 -106 -30 -1 c-34 0 -32 18 -17 -180 5 -60 12 -118 17 -127 8 -21 35
-24 53 -6 9 9 13 7 18 -8 4 -10 15 -38 25 -61 l18 -43 456 0 456 0 24 54 c21
47 27 53 48 49 14 -3 28 1 33 9 7 11 23 164 27 273 2 34 -1 40 -20 43 -23 3
-21 -5 -38 167 -19 186 -98 335 -216 410 -91 58 -303 89 -449 65z"/>
<path d="M2400 1691 c-92 -28 -180 -126 -180 -201 0 -20 5 -20 305 -20 l305 0
-6 28 c-19 79 -84 153 -160 182 -42 15 -77 20 -147 19 -51 0 -103 -4 -117 -8z"/>
<path d="M1875 1231 c-50 -30 -69 -68 -70 -136 0 -75 27 -119 86 -136 45 -14
116 1 126 27 9 24 -3 27 -36 10 -45 -24 -69 -20 -108 19 -34 34 -35 38 -31 92
4 48 10 61 37 85 35 32 59 35 101 13 25 -13 29 -13 34 0 7 18 -41 45 -81 45
-15 0 -42 -8 -58 -19z"/>
<path d="M2344 1231 c-64 -39 -86 -156 -41 -222 76 -113 217 -51 217 96 0 115
-89 179 -176 126z m91 -17 c59 -23 59 -205 0 -228 -35 -13 -64 -5 -89 25 -22
25 -26 41 -26 89 0 48 4 64 26 89 25 30 54 38 89 25z"/>
<path d="M952 1103 l3 -138 57 -3 c101 -5 152 43 152 145 0 91 -47 133 -152
133 l-63 0 3 -137z m129 97 c45 -24 62 -106 34 -160 -19 -36 -43 -50 -89 -50
l-36 0 0 110 0 110 36 0 c19 0 44 -5 55 -10z"/>
<path d="M1234 1218 c3 -13 6 -76 6 -140 0 -98 3 -118 15 -118 13 0 15 22 15
140 0 136 -1 140 -21 140 -17 0 -20 -4 -15 -22z"/>
<path d="M1369 1236 c-2 -2 -3 -66 -1 -141 3 -121 5 -136 20 -133 13 2 16 13
13 49 -4 79 35 71 90 -18 12 -19 29 -33 40 -33 26 0 24 5 -16 62 l-36 49 26
30 c14 17 25 39 25 49 0 32 -21 67 -47 79 -23 11 -105 16 -114 7z m105 -42
c17 -16 21 -51 8 -71 -10 -15 -53 -31 -69 -26 -8 3 -13 25 -13 59 0 53 1 54
29 54 16 0 37 -7 45 -16z"/>
<path d="M1619 1236 c-2 -2 -3 -65 -1 -140 l3 -136 65 0 c50 0 64 3 64 15 0
11 -12 15 -51 15 l-50 0 3 48 c3 46 4 47 41 52 52 7 51 24 0 28 l-43 3 0 45 0
44 50 0 c38 0 50 4 50 15 0 12 -14 15 -63 15 -35 0 -66 -2 -68 -4z"/>
<path d="M2047 1234 c-13 -14 6 -24 44 -24 l39 0 0 -125 c0 -118 1 -125 20
-125 19 0 20 7 20 125 l0 125 45 0 c33 0 45 4 45 15 0 12 -18 15 -103 15 -57
0 -107 -3 -110 -6z"/>
<path d="M2590 1101 c0 -134 1 -141 20 -141 17 0 20 7 20 50 0 43 3 50 19 50
11 0 34 -20 55 -50 23 -31 43 -50 56 -50 11 0 20 1 20 3 0 2 -18 27 -40 57
l-40 53 25 25 c30 30 33 80 6 113 -14 18 -31 23 -80 27 l-61 4 0 -141z m111
88 c32 -32 8 -86 -41 -91 -24 -3 -25 0 -28 55 -3 55 -2 57 23 57 14 0 34 -9
46 -21z"/>
<path d="M585 691 c-11 -35 -15 -77 -13 -152 l3 -104 1295 0 1295 0 3 45 c7
88 -6 128 -56 180 -62 63 -95 72 -246 62 -90 -6 -120 -4 -128 5 -8 10 -226 13
-1073 13 l-1063 0 -17 -49z"/>
</g>
</svg>
