<?xml version="1.0" standalone="no"?>
<!DOCTYPE svg PUBLIC "-//W3C//DTD SVG 20010904//EN"
 "http://www.w3.org/TR/2001/REC-SVG-20010904/DTD/svg10.dtd">
<svg version="1.0" xmlns="http://www.w3.org/2000/svg"
 width="415.000000pt" height="138.000000pt" viewBox="0 0 415.000000 138.000000"
 preserveAspectRatio="xMidYMid meet">

<g transform="translate(0.000000,138.000000) scale(0.100000,-0.100000)"
fill="#000000" stroke="none">
<path d="M460 1103 c-63 -23 -142 -105 -164 -170 -15 -45 -17 -89 -14 -330 3
-266 4 -280 26 -320 30 -58 86 -111 141 -137 43 -20 62 -21 326 -21 l280 0 57
28 c64 32 111 80 142 146 20 43 21 63 21 326 0 264 -1 283 -21 326 -26 55 -79
111 -137 141 -40 22 -52 23 -327 25 -240 2 -292 -1 -330 -14z m441 -229 c14
-13 18 -12 28 0 27 33 50 29 93 -13 22 -23 45 -41 50 -41 5 0 6 -4 3 -10 -11
-17 -49 -11 -87 15 -52 35 -68 33 -68 -9 0 -25 -7 -40 -26 -55 -30 -24 -43
-26 -78 -10 -36 17 -54 65 -35 98 27 49 80 60 120 25z m-303 -30 c12 -14 22
-31 22 -39 0 -27 -23 -63 -47 -74 -34 -16 -47 -14 -77 10 -60 47 -14 150 59
132 11 -2 30 -16 43 -29z m340 -140 c3 -39 6 -43 47 -59 25 -9 47 -21 50 -26
3 -5 -9 -22 -28 -38 -28 -25 -33 -35 -29 -61 3 -22 -2 -41 -18 -62 -19 -26
-20 -34 -11 -56 18 -38 -2 -51 -36 -25 -38 27 -39 48 -9 92 32 46 33 57 1 65
-14 4 -25 11 -25 16 0 5 -7 7 -15 4 -10 -4 -12 -15 -9 -34 8 -35 -11 -70 -37
-70 -18 0 -20 5 -17 42 3 36 0 44 -22 55 -14 7 -24 20 -22 29 4 19 49 61 75
69 31 11 18 25 -24 25 -29 0 -46 -6 -58 -21 -15 -19 -21 -20 -56 -10 -49 13
-55 14 -55 1 0 -5 9 -10 21 -10 43 0 59 -18 59 -66 0 -40 2 -45 19 -39 37 11
35 -17 -3 -52 -48 -45 -66 -33 -66 43 0 30 -2 54 -4 54 -26 0 -32 -14 -28 -65
4 -43 0 -59 -17 -83 -18 -26 -19 -31 -5 -36 23 -9 -1 -36 -32 -36 -44 0 -73
73 -34 85 36 11 43 41 19 75 -14 18 -25 53 -30 87 -4 32 -10 70 -14 86 -6 22
-4 27 11 27 10 0 32 5 50 12 25 9 39 8 64 -2 37 -16 125 -14 155 3 11 6 28 10
37 8 10 -1 26 3 35 8 10 6 27 10 38 8 16 -1 21 -11 23 -43z"/>
<path d="M1530 690 l0 -250 156 0 155 0 -3 38 -3 37 -113 3 -113 3 3 72 3 72
93 3 92 3 0 34 0 35 -95 0 -95 0 0 65 0 65 116 0 115 0 -3 33 -3 32 -152 3
-153 3 0 -251z"/>
<path d="M3010 876 c0 -53 -1 -56 -25 -56 -21 0 -25 -5 -25 -30 0 -25 4 -30
25 -30 l25 0 0 -107 c0 -175 20 -213 114 -221 58 -5 72 4 62 41 -4 18 -12 22
-43 22 -54 0 -64 25 -61 155 l3 105 48 3 c46 3 48 4 45 30 -3 25 -7 27 -51 30
l-49 3 4 52 3 52 -37 3 -38 3 0 -55z"/>
<path d="M2085 815 c-16 -9 -37 -23 -46 -31 -22 -20 -29 -18 -29 11 0 22 -4
25 -35 25 l-35 0 0 -190 0 -190 35 0 35 0 0 129 0 129 31 26 c37 31 76 43 98
29 13 -8 16 -36 19 -162 l3 -151 34 0 35 0 0 129 0 129 31 26 c34 29 71 41 94
32 27 -10 35 -54 35 -187 l0 -129 35 0 35 0 0 133 c0 72 -5 150 -10 172 -10
46 -50 85 -86 85 -29 0 -94 -31 -114 -55 -12 -14 -16 -13 -39 15 -32 38 -83
48 -126 25z"/>
<path d="M2666 820 c-65 -21 -105 -91 -106 -184 0 -120 45 -188 135 -202 133
-20 215 69 202 218 -6 73 -33 127 -74 151 -37 21 -117 30 -157 17z m128 -83
c43 -43 43 -171 0 -218 -26 -29 -104 -26 -133 5 -41 44 -41 158 0 210 28 36
99 37 133 3z"/>
<path d="M3331 817 c-69 -24 -97 -107 -55 -164 14 -19 40 -34 80 -46 89 -27
109 -39 109 -67 0 -49 -100 -65 -146 -24 -17 15 -22 16 -44 4 -32 -17 -31 -23
5 -53 57 -48 168 -47 224 3 26 24 31 36 31 73 0 63 -30 92 -120 119 -87 26
-103 38 -87 72 16 36 63 43 114 17 39 -19 44 -19 66 -5 20 13 21 18 10 31 -19
23 -88 53 -123 52 -16 0 -45 -5 -64 -12z"/>
<path d="M3600 809 c0 -5 30 -85 66 -177 l66 -167 -21 -43 c-23 -46 -52 -63
-94 -55 -22 4 -27 1 -33 -21 -9 -36 -1 -41 61 -41 93 0 97 7 292 503 4 10 -4
13 -32 10 l-38 -3 -45 -123 c-25 -67 -50 -121 -55 -119 -5 1 -23 39 -39 82
-64 179 -56 165 -94 165 -19 0 -34 -5 -34 -11z"/>
</g>
</svg>
