<?xml version="1.0" standalone="no"?>
<!DOCTYPE svg PUBLIC "-//W3C//DTD SVG 20010904//EN"
 "http://www.w3.org/TR/2001/REC-SVG-20010904/DTD/svg10.dtd">
<svg version="1.0" xmlns="http://www.w3.org/2000/svg"
 width="371.000000pt" height="371.000000pt" viewBox="0 0 371.000000 371.000000"
 preserveAspectRatio="xMidYMid meet">

<g transform="translate(0.000000,371.000000) scale(0.100000,-0.100000)"
fill="#000000" stroke="none">
<path d="M12 3698 c-9 -9 -12 -435 -12 -1855 l0 -1843 1855 0 1855 0 0 1838
c0 1769 -1 1840 -18 1855 -17 16 -159 17 -1843 17 -1406 0 -1828 -3 -1837 -12z
m752 -1602 c48 -36 69 -80 70 -143 l1 -53 43 0 c180 0 235 -255 72 -337 -111
-57 -248 7 -266 122 -3 25 -3 56 0 70 6 24 5 25 -44 25 -80 0 -142 44 -161
113 -22 81 30 189 106 224 49 22 136 12 179 -21z m486 -266 c0 -173 -4 -270
-10 -270 -6 0 -10 97 -10 270 0 173 4 270 10 270 6 0 10 -97 10 -270z m-374
172 c-13 -12 -17 8 -9 44 l8 39 3 -39 c2 -21 1 -41 -2 -44z m54 9 c-10 -21
-30 -37 -30 -26 0 14 21 45 31 45 6 0 6 -7 -1 -19z m45 -51 c-3 -5 -15 -10
-26 -10 -10 0 -19 5 -19 10 0 6 12 10 26 10 14 0 23 -4 19 -10z m663 -29 l3
-31 -85 0 c-70 0 -86 -3 -86 -15 0 -12 14 -15 66 -15 l65 0 -3 -32 -3 -33 -63
-3 c-44 -2 -62 -7 -59 -15 2 -8 33 -13 85 -15 l82 -3 0 -29 0 -30 -125 0 -125
0 0 123 c0 68 2 126 5 129 3 2 58 4 122 3 l118 -2 3 -32z m144 27 c8 -7 28
-46 43 -85 16 -40 29 -73 30 -73 2 0 17 36 35 80 34 85 46 95 106 87 l29 -4 3
-126 3 -126 -26 -7 c-45 -11 -55 0 -56 63 l-1 58 -25 -57 c-26 -57 -27 -58
-68 -58 -41 0 -43 1 -60 48 -26 71 -35 73 -35 9 l0 -57 -40 0 -40 0 0 123 c0
68 3 127 7 130 11 12 78 8 95 -5z m528 -6 c47 -23 73 -74 66 -130 -10 -81 -62
-122 -153 -122 -119 0 -186 99 -135 200 22 44 72 70 137 70 28 0 66 -8 85 -18z
m308 9 c29 -1 32 -4 32 -31 0 -29 -2 -30 -45 -30 l-45 0 0 -95 0 -95 -40 0
-40 0 0 95 0 95 -45 0 c-43 0 -45 1 -45 28 0 16 2 31 5 33 4 5 71 4 223 0z
m262 -6 c32 -16 55 -50 45 -65 -10 -15 -63 -12 -90 6 -16 10 -34 14 -51 10
-42 -11 -22 -29 43 -41 63 -12 87 -24 104 -58 16 -28 -7 -73 -46 -91 -41 -20
-125 -21 -170 -1 -34 14 -62 56 -49 76 10 17 64 9 94 -13 24 -18 35 -20 57
-12 41 14 30 28 -32 40 -74 15 -104 32 -112 63 -8 31 14 71 47 88 34 17 125
16 160 -2z m142 6 c3 -1 18 -21 32 -46 15 -25 29 -45 31 -45 2 0 13 16 25 35
12 20 29 42 37 50 17 17 69 20 78 5 4 -6 -16 -46 -44 -90 -39 -61 -51 -88 -51
-119 0 -44 -7 -49 -56 -43 -32 4 -34 6 -34 45 0 31 -11 57 -50 119 -28 43 -49
82 -46 87 5 7 42 8 78 2z"/>
<path d="M596 2101 c-119 -62 -119 -236 1 -287 53 -23 100 -18 119 11 9 14 36
37 60 51 42 25 44 28 44 71 0 60 -25 109 -71 140 -52 34 -104 39 -153 14z m12
-84 c4 -21 -25 -34 -40 -19 -8 8 -8 16 2 27 16 19 34 15 38 -8z m140 -5 c3
-16 -2 -22 -17 -22 -26 0 -36 17 -20 36 16 19 33 13 37 -14z m-32 -119 c-24
-21 -37 -24 -69 -20 -42 6 -98 47 -64 47 9 0 17 -4 17 -9 0 -5 14 -14 30 -20
34 -11 68 -3 89 23 8 9 17 14 20 10 3 -3 -7 -17 -23 -31z"/>
<path d="M798 1870 c-72 -39 -102 -156 -58 -228 37 -60 134 -88 203 -58 58 24
81 59 85 129 3 52 0 67 -20 96 -35 51 -71 73 -125 78 -35 2 -58 -2 -85 -17z
m20 -83 c4 -21 -27 -35 -38 -17 -12 19 0 42 19 38 9 -2 17 -11 19 -21z m140
-5 c3 -17 -2 -22 -17 -22 -14 0 -21 6 -21 18 0 38 33 41 38 4z m-34 -93 c25
-12 43 -39 26 -39 -6 0 -10 4 -10 9 0 5 -13 14 -29 21 -33 13 -64 3 -93 -34
-10 -12 -18 -16 -18 -8 0 22 48 62 74 62 14 0 36 -5 50 -11z"/>
<path d="M2179 1889 c-40 -40 -10 -128 44 -129 24 0 67 44 67 70 0 24 -18 61
-34 72 -21 14 -56 8 -77 -13z"/>
</g>
</svg>
