<?xml version="1.0" standalone="no"?>
<!DOCTYPE svg PUBLIC "-//W3C//DTD SVG 20010904//EN"
 "http://www.w3.org/TR/2001/REC-SVG-20010904/DTD/svg10.dtd">
<svg version="1.0" xmlns="http://www.w3.org/2000/svg"
 width="418.000000pt" height="338.000000pt" viewBox="0 0 418.000000 338.000000"
 preserveAspectRatio="xMidYMid meet">

<g transform="translate(0.000000,338.000000) scale(0.100000,-0.100000)"
fill="#000000" stroke="none">
<path d="M304 3196 c-17 -8 -36 -26 -42 -42 -9 -22 -12 -212 -10 -749 l3 -720
68 -3 67 -3 0 243 c1 134 1 444 1 691 l-1 447 213 0 c116 1 865 1 1662 1
l1450 0 5 -688 5 -688 67 -3 c63 -3 68 -1 73 20 3 13 4 343 3 733 -3 777 -1
743 -62 765 -19 7 -607 10 -1750 10 -1416 -1 -1726 -3 -1752 -14z"/>
<path d="M1191 1453 c-72 -37 -99 -122 -67 -207 21 -54 52 -76 106 -76 32 0
48 7 77 34 34 31 37 38 41 102 3 51 0 75 -12 99 -31 56 -90 76 -145 48z m89
-41 c16 -16 32 -45 35 -65 9 -49 -13 -115 -47 -140 -23 -17 -31 -18 -55 -8
-95 39 -78 239 20 241 10 0 31 -13 47 -28z"/>
<path d="M1480 1452 c-52 -26 -80 -74 -80 -139 0 -99 44 -143 142 -143 74 0
80 6 76 76 -2 47 -7 59 -21 62 -16 3 -17 -1 -12 -31 4 -20 4 -44 0 -55 -9 -30
-57 -38 -94 -16 -77 45 -75 168 4 220 25 16 33 15 98 -11 12 -5 17 -2 17 9 0
16 -54 46 -82 46 -7 0 -29 -8 -48 -18z"/>
<path d="M3110 1457 c-34 -17 -55 -57 -46 -90 4 -19 25 -39 61 -63 63 -40 73
-72 31 -99 -22 -15 -27 -15 -55 -1 -37 20 -41 20 -41 1 0 -19 31 -35 70 -35
44 0 66 14 79 51 15 43 -1 74 -59 114 -49 34 -63 72 -35 95 12 10 24 11 50 2
29 -8 35 -8 35 4 0 8 -12 19 -26 24 -32 12 -34 12 -64 -3z"/>
<path d="M659 1454 c-9 -20 6 -279 16 -277 6 2 11 25 13 53 3 46 5 50 28 50
53 0 104 49 104 100 0 10 -10 31 -23 46 -19 22 -34 28 -79 32 -30 2 -57 0 -59
-4z m99 -40 c45 -31 17 -104 -40 -104 -27 0 -28 1 -28 53 0 30 3 57 7 60 11
12 37 8 61 -9z"/>
<path d="M889 1454 c-9 -20 6 -279 16 -277 6 2 11 25 13 53 4 69 28 68 82 -5
39 -53 70 -71 70 -41 0 8 -4 17 -8 20 -5 3 -21 23 -36 45 l-28 40 26 31 c32
39 33 71 3 106 -19 22 -34 28 -79 32 -30 2 -57 0 -59 -4z m99 -40 c43 -30 13
-104 -43 -104 -24 0 -25 3 -25 53 0 30 3 57 7 60 11 12 37 8 61 -9z"/>
<path d="M1702 1318 c3 -119 5 -143 18 -143 11 0 16 14 18 53 3 43 6 52 22 52
11 0 31 -18 49 -43 38 -55 59 -73 72 -60 6 6 -3 25 -26 56 -19 25 -35 49 -35
53 0 4 9 18 21 30 21 22 29 80 14 104 -12 19 -71 40 -115 40 l-41 0 3 -142z
m108 92 c11 -11 20 -29 20 -39 0 -23 -45 -61 -71 -61 -16 0 -19 8 -19 60 0 57
1 60 25 60 14 0 34 -9 45 -20z"/>
<path d="M2005 1448 c-3 -7 -25 -67 -50 -133 -25 -66 -45 -126 -45 -132 0 -26
20 -12 40 28 21 40 21 40 72 37 47 -3 52 -5 61 -33 10 -29 23 -45 40 -45 13 0
8 19 -40 156 -44 124 -65 157 -78 122z m34 -105 c7 -21 15 -44 17 -50 4 -9 -6
-13 -35 -13 -23 0 -41 3 -41 7 0 16 33 93 40 93 4 0 12 -17 19 -37z"/>
<path d="M2192 1318 c3 -118 6 -143 18 -143 12 0 14 16 11 88 -1 48 1 87 6 87
5 0 30 -29 56 -65 26 -36 50 -65 54 -65 5 0 28 33 53 73 l45 72 5 -95 c4 -76
8 -95 20 -95 8 0 15 8 14 18 0 9 -1 74 -2 143 -2 147 -3 148 -78 24 -27 -44
-52 -80 -55 -80 -3 0 -34 41 -68 90 -34 50 -67 90 -72 90 -6 0 -8 -55 -7 -142z"/>
<path d="M2572 1318 c2 -102 6 -143 16 -146 9 -3 12 19 12 87 0 50 4 91 8 91
5 0 29 -29 53 -65 43 -64 62 -78 72 -52 3 8 22 40 44 73 l38 59 5 -95 c4 -67
9 -95 18 -95 6 0 12 3 12 8 0 4 0 68 0 142 0 74 -4 135 -8 135 -5 0 -32 -38
-61 -84 -28 -47 -55 -87 -60 -91 -5 -3 -37 35 -71 85 -34 49 -66 90 -71 90 -6
0 -8 -60 -7 -142z"/>
<path d="M2952 1318 c3 -119 5 -143 18 -143 13 0 15 22 15 140 0 126 -2 140
-18 143 -16 3 -17 -7 -15 -140z"/>
<path d="M3247 1454 c-16 -17 -4 -24 38 -24 l44 0 3 -127 c3 -106 6 -128 18
-128 12 0 15 22 18 128 l3 127 45 0 c32 0 44 4 42 13 -5 13 -198 23 -211 11z"/>
<path d="M250 881 c0 -43 5 -91 10 -107 22 -63 -111 -59 1778 -62 948 -1 1737
1 1754 6 47 12 69 49 75 125 3 36 3 77 -1 91 l-6 26 -1805 0 -1805 0 0 -79z"/>
<path d="M1657 531 c-9 -131 -46 -193 -144 -237 -47 -21 -53 -27 -53 -54 l0
-30 598 2 597 3 3 27 c3 25 -3 30 -61 56 -97 44 -127 97 -142 245 l-7 67 -392
0 -393 0 -6 -79z"/>
</g>
</svg>
